<svg width="1474" height="292" viewBox="0 0 1474 292" fill="none" xmlns="http://www.w3.org/2000/svg">
<g clip-path="url(#clip0_10_98)">
<path d="M367.57 0H412.31C412.31 80.6667 412.31 161.307 412.31 241.92C412.41 243.73 412.31 245.81 413.51 247.31C415.12 248.99 417.66 248.82 419.81 248.94H447.31C447.31 261.267 447.31 273.6 447.31 285.94H402.92C393.48 285.87 383.35 283.21 376.97 275.83C369.42 267.09 367.81 254.99 367.57 243.83C367.563 162.557 367.563 81.28 367.57 0Z" fill="white"/>
<path d="M33.82 31.13C47.82 31.13 61.8367 31.13 75.87 31.13C75.87 46.69 75.87 62.2533 75.87 77.82C90.79 77.82 105.707 77.82 120.62 77.82V112.11C105.7 112.11 90.7867 112.11 75.88 112.11C75.88 155.38 75.82 198.65 75.88 241.92C75.7 245.32 78.12 248.92 81.77 248.92C94.7 249.11 107.65 248.92 120.59 249V286C102.683 286 84.7733 286 66.86 286C57.67 285.95 48.09 282.9 41.77 276C33.37 266.87 31.21 253.91 31.05 241.94C31.0167 198.647 31.02 155.357 31.06 112.07H0C0 100.657 0 89.24 0 77.82H31.09C32.0033 62.2533 32.9133 46.69 33.82 31.13Z" fill="white"/>
<path d="M734.47 91.52C760.24 72.27 795.14 67.43 825.84 75.89C846.11 81.49 863.84 94.89 875.58 112.21C880.824 119.916 885.14 128.213 888.44 136.93C875.98 142.263 863.513 147.597 851.04 152.93C845.68 140.88 837.98 129.42 826.9 121.93C813.06 112.47 794.9 110.67 778.99 115.17C765.611 119.075 754.213 127.914 747.1 139.9C737.72 155.37 735.1 174.14 736.86 191.9C738.51 208.41 745.11 224.9 757.44 236.36C768.135 246.27 782.285 251.6 796.86 251.21C810.218 251.162 823.219 246.888 834 239C842.71 232.69 849.87 224.5 856.12 215.82C866.507 222.827 876.897 229.827 887.29 236.82C879.17 250.57 869.19 263.53 856.29 273.1C844.957 281.448 831.856 287.076 818 289.55C793.21 294.1 766.45 292.04 744.13 279.63C730.08 271.905 718.181 260.796 709.51 247.31C699.51 231.99 693.87 214.09 692.16 195.94C690.16 174.94 692.96 153.41 701.29 134C708.378 117.143 719.832 102.48 734.47 91.52Z" fill="white"/>
<path d="M972.52 82.4C1006.94 65.83 1050.2 69.03 1081.43 91.2C1102.71 106.07 1117.63 129.08 1124.17 154.06C1109.28 154.11 1094.38 154 1079.49 154.12C1074 140.81 1064.11 129.24 1051.28 122.55C1030.59 111.71 1004.17 112.03 984.04 124.06C972.472 131.121 963.386 141.605 958.04 154.06C943.24 154.06 928.447 154.06 913.66 154.06C917.609 138.527 924.929 124.054 935.102 111.669C945.275 99.284 958.05 89.2911 972.52 82.4Z" fill="white"/>
<path d="M1241.41 77.21C1256.57 71.1872 1273.27 70.233 1289.01 74.49C1304.22 78.61 1317.01 89.64 1324.31 103.49C1327.69 109.49 1329.92 116.07 1332.01 122.63L1334.1 122.47C1339.75 107.29 1348.83 92.8 1362.42 83.56C1377.86 72.89 1397.61 70.28 1415.88 72.84C1431.54 75.01 1446.42 83.11 1456.12 95.69C1468.99 112.08 1473.6 133.42 1473.81 153.88C1473.81 197.88 1473.81 241.907 1473.81 285.96H1429C1429 243.6 1429 201.243 1429 158.89C1428.79 148.04 1427.19 136.77 1421.51 127.32C1419.35 123.716 1416.5 120.575 1413.12 118.076C1409.74 115.577 1405.9 113.771 1401.82 112.76C1386.47 108.96 1369.02 112.49 1357.32 123.42C1344.53 135.14 1338.78 152.91 1338.82 169.93C1338.82 208.597 1338.82 247.263 1338.82 285.93H1294.08C1294.08 244.23 1294.08 202.537 1294.08 160.85C1294 149.3 1292.71 137.2 1286.69 127.08C1284.54 123.491 1281.7 120.367 1278.33 117.891C1274.97 115.415 1271.14 113.636 1267.07 112.66C1251.23 108.94 1233.07 112.53 1221.4 124.4C1209.4 136.51 1204.8 154.21 1205.08 170.89C1205.08 209.243 1205.08 247.577 1205.08 285.89C1190.15 285.89 1175.22 285.89 1160.28 285.89C1160.28 216.497 1160.28 147.107 1160.28 77.72C1173.9 77.72 1187.53 77.72 1201.17 77.72C1201.29 90.83 1201.45 103.94 1201.54 117.05C1203.7 117.67 1204.11 115.29 1204.88 113.96C1212.31 98.05 1224.88 83.94 1241.41 77.21Z" fill="white"/>
<path d="M179.5 94.57C198.008 79.7646 221.19 72.0456 244.88 72.8C264.82 73.2 284.88 79.59 300.47 92.21C319.42 107.21 330.87 130.21 334.69 153.81C337.41 169.35 336.26 185.18 336.51 200.87C285.017 200.91 233.523 200.91 182.03 200.87C183.784 214.439 190.7 226.809 201.34 235.41C217.49 248.61 239.66 253.18 260.02 249.89C278.02 246.89 293.69 236.24 306.1 223.3C314.96 232.08 323.76 240.93 332.64 249.69C323.936 260.728 313.22 270.018 301.06 277.07C267.11 296.63 222.69 296.75 188.87 276.82C172.192 267.133 158.653 252.852 149.87 235.68C139.11 214.58 136.03 190.06 139.15 166.68C143 138.8 157.28 112.14 179.5 94.57ZM202.36 127.41C190.937 137.096 183.653 150.785 182 165.67C218.96 165.723 255.917 165.723 292.87 165.67C292.47 152.55 288.45 139.1 279.45 129.28C270.71 119.51 257.67 114.46 244.76 113.8C229.398 112.679 214.199 117.557 202.36 127.41Z" fill="white"/>
<path d="M508.29 90.17C537.67 69.74 578.48 66.81 610.21 83.53C626.328 92.2632 639.329 105.795 647.41 122.25C655.58 138.48 659.2 156.75 659.31 174.86C659.31 183.527 659.31 192.193 659.31 200.86C607.83 200.86 556.35 200.86 504.87 200.86C506.602 214.513 513.577 226.957 524.32 235.56C540.47 248.66 562.57 253.2 582.88 249.9C600.88 246.9 616.5 236.23 628.94 223.33C637.75 232.17 646.64 240.92 655.44 249.77C646.92 260.585 636.462 269.72 624.6 276.71C590 297 544.21 296.91 510 275.8C494.187 266.172 481.344 252.36 472.89 235.89C462.55 215.74 459.28 192.42 461.68 170.02C464.94 138.43 481.85 108.11 508.29 90.17ZM523.71 128.71C513.119 138.324 506.423 151.489 504.89 165.71C541.843 165.71 578.79 165.71 615.73 165.71C615.34 151.93 610.85 137.71 600.92 127.84C591.79 118.54 578.68 114.08 565.84 113.74C550.381 113.037 535.26 118.41 523.71 128.71Z" fill="white"/>
<path d="M910.5 178.51H953.75C952.88 195.82 958.57 213.56 970.48 226.31C977.574 234.046 986.381 240.012 996.196 243.73C1006.01 247.448 1016.56 248.815 1027 247.72C1035.51 246.823 1043.74 244.188 1051.18 239.976C1058.63 235.765 1065.13 230.069 1070.28 223.24C1079.88 210.66 1083.62 194.5 1082.93 178.88H1126.88C1128.94 201.29 1123.68 224.45 1111.16 243.26C1092.35 272.1 1058.84 289.85 1024.7 291.56C991.35 293.62 957.28 279.73 935.36 254.41C926.345 244.068 919.499 232.021 915.228 218.983C910.958 205.944 909.35 192.181 910.5 178.51Z" fill="white"/>
</g>
<defs>
<clipPath id="clip0_10_98">
<rect width="1473.8" height="291.78" fill="white"/>
</clipPath>
</defs>
</svg>
